<svg xmlns="http://www.w3.org/2000/svg" xmlns:xlink="http://www.w3.org/1999/xlink" version="1.1" width="768" height="534.6153846153846" viewBox="0 0 768 534.62" xml:space="preserve"><style xmlns="http://www.w3.org/1999/xhtml">
            @font-face {
                font-family: 'Agbalumo';
                src: url('https://fonts.googleapis.com/css2?family=Agbalumo');
            }
            text {
                font-family: 'Agbalumo';
            }
        </style>
<desc>Created with Fabric.js 5.4.2</desc>
<defs>
</defs>
<g transform="matrix(0.2 0 0 0.2 384 222.02)" id="logo">
<circle style="stroke: none; stroke-width: 1; stroke-dasharray: none; stroke-linecap: butt; stroke-dashoffset: 0; stroke-linejoin: miter; stroke-miterlimit: 4; fill: rgb(53,11,11); fill-rule: nonzero; opacity: 1;" cx="0" cy="0" r="495"/>
</g>
<g transform="matrix(0.2 0 0 0.2 325.11 187.9)" id="logo">
<path style="stroke: none; stroke-width: 1; stroke-dasharray: none; stroke-linecap: butt; stroke-dashoffset: 0; stroke-linejoin: miter; stroke-miterlimit: 4; fill: rgb(255,255,255); fill-rule: nonzero; opacity: 1;" transform=" translate(-205.12, -329.06)" d="M 177.57 334.26 C 187.95 331.28999999999996 192.4 326.84999999999997 192.4 326.84999999999997 C 192.4 326.84999999999997 187.95000000000002 329.80999999999995 176.83 305.34999999999997 C 190.88000000000002 311.43999999999994 216.46 315.74999999999994 233.4 318.09999999999997 C 222.94 330.15999999999997 212.6 342.17999999999995 203.64000000000001 352.78 C 197.04 350.23 184.46 344.33 177.57 334.26 z" stroke-linecap="round"/>
</g>
<g transform="matrix(0.2 0 0 0.2 324.4 237.68)" id="logo">
<path style="stroke: none; stroke-width: 1; stroke-dasharray: none; stroke-linecap: butt; stroke-dashoffset: 0; stroke-linejoin: miter; stroke-miterlimit: 4; fill: rgb(242,196,71); fill-rule: nonzero; opacity: 1;" transform=" translate(-201.53, -578.38)" d="M 187.7 548.24 C 187.7 548.24 204.01 568.5 215.37 564.05 C 214.88 589.25 208.45000000000002 608.53 208.45000000000002 608.53 C 208.45000000000002 608.53 206.97000000000003 595.68 200.05 580.36 C 193.14 565.04 187.7 548.24 187.7 548.24 z" stroke-linecap="round"/>
</g>
<g transform="matrix(0.2 0 0 0.2 323.86 229.44)" id="logo">
<path style="stroke: none; stroke-width: 1; stroke-dasharray: none; stroke-linecap: butt; stroke-dashoffset: 0; stroke-linejoin: miter; stroke-miterlimit: 4; fill: rgb(255,255,255); fill-rule: nonzero; opacity: 1;" transform=" translate(-198.82, -537.12)" d="M 185.23 521.06 C 185.23 521.06 203.01999999999998 528.9699999999999 212.41 553.18 C 200.55 546.26 194.62 546.76 191.16 541.3199999999999 C 187.7 535.88 185.23 521.06 185.23 521.06 z" stroke-linecap="round"/>
</g>
<g transform="matrix(0.2 0 0 0.2 327.31 273.07)" id="logo">
<path style="stroke: none; stroke-width: 1; stroke-dasharray: none; stroke-linecap: butt; stroke-dashoffset: 0; stroke-linejoin: miter; stroke-miterlimit: 4; fill: rgb(242,196,71); fill-rule: nonzero; opacity: 1;" transform=" translate(-216.11, -755.62)" d="M 215.05 765.75 C 191.66000000000003 736.37 199.65 734.94 199.65 734.94 C 205.31 741.09 220.76 746.9200000000001 223.61 743.5 C 233.31 752.91 233.88000000000002 776.3 233.88000000000002 776.3 C 233.88000000000002 776.3 222.6 775.24 215.05 765.75 z" stroke-linecap="round"/>
</g>
<g transform="matrix(0.2 0 0 0.2 341.38 283.33)" id="logo">
<path style="stroke: none; stroke-width: 1; stroke-dasharray: none; stroke-linecap: butt; stroke-dashoffset: 0; stroke-linejoin: miter; stroke-miterlimit: 4; fill: rgb(242,196,71); fill-rule: nonzero; opacity: 1;" transform=" translate(-286.55, -807.01)" d="M 313.06 813.11 C 308.78000000000003 814.76 309.11 824.64 309.11 828.59 C 301.53000000000003 827.9300000000001 290 816.4 290 816.4 C 290 816.4 290.66 829.91 298.24 837.48 C 281.44 836.16 262.66 813.76 262.66 813.76 C 262.66 813.76 265.95000000000005 827.6 273.20000000000005 835.83 C 256.07000000000005 832.21 235.97000000000006 806.84 221.15000000000003 788.3900000000001 C 247.51000000000005 806.1800000000001 246.10000000000002 798.3600000000001 252.12000000000003 793.3300000000002 C 258.38000000000005 797.6100000000001 273.20000000000005 803.8700000000001 288.36 803.8700000000001 C 303.51 803.8700000000001 342.72 785.0900000000001 351.94 776.5300000000001 C 343.7 794.33 317.34 811.46 313.06 813.11 z" stroke-linecap="round"/>
</g>
<g transform="matrix(0.2 0 0 0.2 388.37 233.5)" id="logo">
<path style="stroke: none; stroke-width: 1; stroke-dasharray: none; stroke-linecap: butt; stroke-dashoffset: 0; stroke-linejoin: miter; stroke-miterlimit: 4; fill: rgb(242,196,71); fill-rule: nonzero; opacity: 1;" transform=" translate(-521.89, -557.45)" d="M 833.59 691.55 C 811.35 699.6999999999999 754.28 717.49 732.78 720.4599999999999 C 718.6999999999999 738.2499999999999 683.12 796.0699999999999 614.18 823.4899999999999 C 614.92 834.6099999999999 635.68 859.0699999999999 630.4899999999999 866.4799999999999 C 625.2999999999998 873.8899999999999 501.5099999999999 937.6399999999999 401.4399999999999 933.93 C 463.70999999999987 890.1999999999999 485.1999999999999 870.92 493.3599999999999 851.65 C 501.5099999999999 832.38 518.56 789.38 520.05 756.77 C 569.7099999999999 722.67 615.67 690.06 628.27 674.49 C 640.87 658.92 651.99 628.53 651.99 628.53 C 651.99 628.53 619.37 669.3 591.21 681.9 C 611.25 647.64 626.21 614.5 630.7 585.93 C 639.74 564.9399999999999 654.5200000000001 540.24 660.1500000000001 526.9699999999999 C 667.07 510.6599999999999 665.0900000000001 506.7099999999999 659.6600000000001 489.9099999999999 C 654.22 473.1099999999999 630.5000000000001 405.8999999999999 604.3100000000001 366.3699999999999 C 615.6800000000001 412.8199999999999 621.61 465.1999999999999 617.1600000000001 484.4799999999999 C 608.2600000000001 470.1499999999999 572.19 432.5899999999999 555.3900000000001 426.6599999999999 C 573.6700000000001 461.7499999999999 579.6000000000001 478.5499999999999 579.6000000000001 483.4899999999999 C 579.6000000000001 488.4299999999999 568.7300000000001 533.8999999999999 568.7300000000001 533.8999999999999 C 568.7300000000001 533.8999999999999 546.4900000000001 482.5099999999999 539.0800000000002 471.6299999999999 C 531.6700000000002 460.7599999999999 503.50000000000017 435.0599999999999 479.29000000000013 427.64999999999986 C 503.0100000000001 454.33999999999986 517.3400000000001 471.1399999999999 521.7900000000002 484.47999999999985 C 526.2400000000002 497.8199999999998 548.9700000000001 581.3399999999998 536.1200000000002 601.0999999999999 C 523.2700000000002 620.8699999999999 485.71000000000026 630.2599999999999 465.9500000000002 635.6899999999999 C 446.18000000000023 641.13 414.56000000000023 648.54 414.56000000000023 648.54 C 414.56000000000023 648.54 412.0900000000002 673.74 401.7100000000002 675.7199999999999 C 391.3300000000002 677.6999999999999 392.3200000000002 664.8499999999999 378.4800000000002 659.91 C 364.6400000000002 654.9699999999999 334.50000000000017 656.9399999999999 334.50000000000017 656.9399999999999 C 334.50000000000017 656.9399999999999 349.82000000000016 665.8399999999999 355.75000000000017 673.7399999999999 C 361.6800000000002 681.6399999999999 360.20000000000016 688.5699999999999 356.2400000000002 691.0399999999998 C 352.2900000000002 693.5099999999999 327.08000000000015 702.8999999999999 317.69000000000017 718.7099999999998 C 335.4800000000002 710.3099999999998 352.7800000000002 706.3599999999998 354.75000000000017 708.8299999999998 C 356.7300000000002 711.2999999999998 359.20000000000016 715.2499999999998 358.70000000000016 724.6399999999998 C 358.21000000000015 734.0299999999997 355.73000000000013 751.8199999999997 324.1100000000001 769.6099999999998 C 292.4900000000001 787.3999999999999 281.6100000000001 785.4199999999997 276.1800000000001 784.4399999999998 C 270.7500000000001 783.4599999999999 253.9400000000001 769.6099999999998 250.48000000000013 756.2699999999999 C 249.23000000000013 751.4399999999998 252.05000000000013 747.0699999999998 256.16000000000014 743.4499999999998 C 272.29000000000013 744.1399999999999 290.67000000000013 735.7899999999998 301.8700000000001 721.6699999999998 C 313.2400000000001 707.3399999999998 301.3800000000001 664.3499999999998 301.3800000000001 664.3499999999998 C 301.3800000000001 664.3499999999998 293.6400000000001 696.4699999999998 285.73000000000013 704.3799999999998 C 277.8200000000001 712.2899999999997 254.38000000000014 724.4399999999997 232.03000000000014 719.8599999999998 C 203.04000000000013 713.9299999999998 188.87000000000015 697.7899999999997 188.54000000000013 683.6199999999998 C 189.03000000000014 678.6799999999997 199.08000000000013 664.8399999999998 215.39000000000013 629.7599999999998 C 231.70000000000013 594.6699999999997 240.72000000000014 557.3599999999998 228.61000000000013 521.2899999999997 C 228.61000000000013 521.2899999999997 221.86000000000013 541.9799999999998 217.37000000000012 537.0999999999997 C 211.8200000000001 531.0799999999997 208.43000000000012 518.7799999999996 192.18000000000012 509.5299999999997 C 184.02000000000012 503.8399999999997 174.6900000000001 497.4399999999997 175.36000000000013 493.36999999999966 C 203.53000000000014 452.3499999999997 196.12000000000012 411.3399999999997 197.60000000000014 403.92999999999967 C 199.08000000000013 396.51999999999964 230.71000000000015 365.87999999999965 249.98000000000013 341.1699999999997 C 269.2500000000001 316.4599999999997 316.20000000000016 255.67999999999967 316.20000000000016 255.67999999999967 C 316.20000000000016 255.67999999999967 363.64000000000016 205.26999999999967 378.47000000000014 197.11999999999966 C 393.3000000000001 188.96999999999966 429.6200000000001 180.80999999999966 429.6200000000001 180.80999999999966 C 429.6200000000001 180.80999999999966 371.0600000000001 224.53999999999965 359.2000000000001 246.03999999999968 C 347.3400000000001 267.5399999999997 342.8900000000001 276.42999999999967 342.8900000000001 276.42999999999967 C 342.8900000000001 276.42999999999967 374.7600000000001 245.29999999999967 402.9300000000001 228.98999999999967 C 431.10000000000014 212.67999999999967 482.9900000000001 186.73999999999967 506.71000000000015 183.76999999999967 C 530.4300000000002 180.79999999999967 595.6600000000002 194.14999999999966 609.0000000000001 204.52999999999966 C 629.0100000000001 260.11999999999966 637.9100000000001 266.04999999999967 642.3600000000001 285.32999999999964 C 646.8100000000002 304.5999999999996 657.1900000000002 377.98999999999967 652.0000000000001 396.51999999999964 C 672.0100000000001 370.57999999999964 686.8400000000001 331.2899999999996 683.1300000000001 312.75999999999965 C 679.4200000000001 294.2299999999997 666.0800000000002 227.51999999999964 654.9600000000002 208.97999999999965 C 690.5400000000002 234.17999999999964 697.2100000000002 231.21999999999966 715.7400000000001 274.94999999999965 C 734.2700000000001 318.67999999999967 772.0800000000002 388.3599999999997 774.3000000000002 423.19999999999965 C 776.5200000000002 458.0399999999996 772.0800000000002 534.3899999999996 748.3600000000001 592.2099999999996 C 788.3900000000001 548.4799999999996 835.8300000000002 457.2999999999996 835.8300000000002 438.7699999999996 C 835.8300000000002 420.23999999999955 825.4500000000002 355.7499999999996 808.4000000000002 317.9499999999996 C 851.3900000000002 386.1499999999996 866.2200000000003 440.2599999999996 866.2200000000003 456.5699999999996 C 866.2200000000003 472.8799999999996 849.1700000000003 540.3299999999996 842.5000000000002 552.1899999999996 C 844.7200000000003 573.6899999999996 852.1400000000002 588.5099999999996 840.2800000000002 601.8499999999996 C 828.4200000000002 615.1899999999996 720.2000000000002 675.2299999999996 686.8400000000001 685.6099999999996 C 713.5300000000002 695.2499999999995 868.4500000000002 660.4099999999995 868.4500000000002 660.4099999999995 C 868.4500000000002 660.4099999999995 855.82 683.39 833.59 691.55 z" stroke-linecap="round"/>
</g>
<g transform="matrix(0.2 0 0 0.2 362.29 226.03)" id="logo">
<path style="stroke: none; stroke-width: 1; stroke-dasharray: none; stroke-linecap: butt; stroke-dashoffset: 0; stroke-linejoin: miter; stroke-miterlimit: 4; fill: rgb(255,255,255); fill-rule: nonzero; opacity: 1;" transform=" translate(-391.3, -520.07)" d="M 420.13 491.9 C 412.88 516.9399999999999 382.57 545.6 371.7 548.24 L 362.47999999999996 530.78 C 362.48 530.78 403 506.4 420.13 491.9 z" stroke-linecap="round"/>
</g>
<g transform="matrix(0.2 0 0 0.2 364.76 232.67)" id="logo">
<path style="stroke: none; stroke-width: 1; stroke-dasharray: none; stroke-linecap: butt; stroke-dashoffset: 0; stroke-linejoin: miter; stroke-miterlimit: 4; fill: rgb(201,122,28); fill-rule: nonzero; opacity: 1;" transform=" translate(-403.65, -553.3)" d="M 475.56 545.52 C 463.7 563.31 424.41 575.91 408.85 572.9499999999999 C 428.86 564.05 444.43 526.9899999999999 446.65000000000003 518.8399999999999 C 448.87000000000006 510.68999999999994 429.6 496.5999999999999 429.6 496.5999999999999 C 429.6 496.5999999999999 391.8 551.4499999999999 380.68 555.8999999999999 C 369.56 560.3499999999999 359.92 561.0899999999999 359.92 561.0899999999999 L 331.75 610.0099999999999 L 411.81 607.7899999999998 L 450.36 607.7899999999998 L 475.56 545.52 z" stroke-linecap="round"/>
</g>
<g transform="matrix(0.2 0 0 0.2 383.81 165.06)" id="logo">
<path style="stroke: none; stroke-width: 1; stroke-dasharray: none; stroke-linecap: butt; stroke-dashoffset: 0; stroke-linejoin: miter; stroke-miterlimit: 4; fill: rgb(255,255,255); fill-rule: nonzero; opacity: 1;" transform=" translate(-499.02, -214.71)" d="M 358.01 262.33 C 395.55 241.26999999999998 417.53 234.39999999999998 428.96999999999997 231.2 C 440.41999999999996 228 503.14 203.73 519.62 203.73 C 536.1 203.73 579.14 206.92999999999998 601.11 222.04 C 623.09 237.14999999999998 640.03 256.38 640.03 256.38 L 617.14 185.87 L 519.16 167.1 L 455.97999999999996 186.32999999999998 L 387.76 224.32999999999998 L 358.01 262.33 z" stroke-linecap="round"/>
</g>
<g transform="matrix(0.2 0 0 0.2 401.89 233.22)" id="logo">
<path style="stroke: none; stroke-width: 1; stroke-dasharray: none; stroke-linecap: butt; stroke-dashoffset: 0; stroke-linejoin: miter; stroke-miterlimit: 4; fill: rgb(201,122,28); fill-rule: nonzero; opacity: 1;" transform=" translate(-589.59, -556.05)" d="M 881.99 473.82 L 882.51 392.82 L 869.42 370.94 L 865.63 339.94 L 838.55 319.34 L 830.63 306.09999999999997 L 729.8199999999999 248.27999999999997 L 660.1399999999999 198.61999999999998 L 610.4799999999999 186.76 L 530.4199999999998 171.19 L 489.64999999999986 181.57 C 527.4499999999998 186.76 584.5299999999999 203.07 593.4299999999998 217.14999999999998 C 610.4799999999998 250.51 620.8599999999998 290.53 621.5999999999998 303.88 C 622.3399999999998 317.21999999999997 620.8599999999998 372.08 620.8599999999998 372.08 C 620.8599999999998 372.08 603.8099999999998 330.57 597.8799999999998 325.38 C 591.9499999999998 320.19 588.2399999999998 321.67 581.5699999999998 312.78 C 574.8999999999999 303.88999999999993 565.2599999999999 260.15 546.7299999999998 249.02999999999997 C 543.7599999999998 273.48999999999995 554.8799999999998 334.27 554.8799999999998 334.27 L 537.8299999999998 369.84999999999997 L 494.0999999999998 386.9 L 455.5499999999998 384.67999999999995 L 414.0399999999998 379.48999999999995 C 414.0399999999998 379.48999999999995 494.0999999999998 418.03999999999996 502.2499999999998 423.96999999999997 C 510.39999999999975 429.9 518.5599999999997 441.02 533.3799999999998 469.92999999999995 C 528.9299999999997 476.59999999999997 488.89999999999975 438.79999999999995 488.89999999999975 438.79999999999995 C 488.89999999999975 438.79999999999995 503.72999999999973 473.64 507.4299999999997 489.2099999999999 C 511.1399999999997 504.7799999999999 508.16999999999973 566.3 506.6899999999997 575.1999999999999 C 505.2099999999997 584.0999999999999 458.5099999999997 598.92 458.5099999999997 598.92 L 410.3299999999997 613 C 410.3299999999997 613 408.8499999999997 642.65 397.7299999999997 651.55 C 383.6499999999997 652.29 354.9799999999997 652.04 334.4799999999997 656.99 C 348.06999999999965 661.19 349.54999999999967 670.09 345.8499999999997 673.79 C 342.1399999999997 677.5 309.5299999999997 687.87 302.11999999999966 699.73 C 294.70999999999964 711.59 285.7299999999997 739.02 285.7299999999997 739.02 L 368.8299999999997 715.3 L 468.8999999999997 696.03 L 543.0299999999997 651.55 L 618.6499999999997 574.51 L 598.8399999999998 657.24 L 513.3699999999998 740.99 L 466.9799999999998 867.38 L 388.2999999999998 940.9 C 388.2999999999998 940.9 487.5799999999998 936.4 576.1699999999998 912.7099999999999 C 664.7599999999999 889.0199999999999 728.6299999999999 790.1299999999999 728.6299999999999 790.1299999999999 L 871.8199999999999 685.06 L 893.4499999999999 567.6299999999999 L 881.99 473.82 z" stroke-linecap="round"/>
</g>
<g transform="matrix(0.2 0 0 0.2 327.31 273.07)" id="logo">
<path style="stroke: none; stroke-width: 1; stroke-dasharray: none; stroke-linecap: butt; stroke-dashoffset: 0; stroke-linejoin: miter; stroke-miterlimit: 4; fill: rgb(255,255,255); fill-rule: nonzero; opacity: 1;" transform=" translate(-216.11, -755.62)" d="M 215.05 765.75 C 191.66000000000003 736.37 199.65 734.94 199.65 734.94 C 205.31 741.09 220.76 746.9200000000001 223.61 743.5 C 233.31 752.91 233.88000000000002 776.3 233.88000000000002 776.3 C 233.88000000000002 776.3 222.6 775.24 215.05 765.75 z" stroke-linecap="round"/>
</g>
<g transform="matrix(0.2 0 0 0.2 341.38 283.33)" id="logo">
<path style="stroke: none; stroke-width: 1; stroke-dasharray: none; stroke-linecap: butt; stroke-dashoffset: 0; stroke-linejoin: miter; stroke-miterlimit: 4; fill: rgb(255,255,255); fill-rule: nonzero; opacity: 1;" transform=" translate(-286.55, -807.01)" d="M 313.06 813.11 C 308.78000000000003 814.76 309.11 824.64 309.11 828.59 C 301.53000000000003 827.9300000000001 290 816.4 290 816.4 C 290 816.4 290.66 829.91 298.24 837.48 C 281.44 836.16 262.66 813.76 262.66 813.76 C 262.66 813.76 265.95000000000005 827.6 273.20000000000005 835.83 C 256.07000000000005 832.21 235.97000000000006 806.84 221.15000000000003 788.3900000000001 C 247.51000000000005 806.1800000000001 246.10000000000002 798.3600000000001 252.12000000000003 793.3300000000002 C 258.38000000000005 797.6100000000001 273.20000000000005 803.8700000000001 288.36 803.8700000000001 C 303.51 803.8700000000001 342.72 785.0900000000001 351.94 776.5300000000001 C 343.7 794.33 317.34 811.46 313.06 813.11 z" stroke-linecap="round"/>
</g>
<g transform="matrix(0.2 0 0 0.2 345.12 212.5)" id="logo">
<path style="stroke: none; stroke-width: 1; stroke-dasharray: none; stroke-linecap: butt; stroke-dashoffset: 0; stroke-linejoin: miter; stroke-miterlimit: 4; fill: rgb(255,255,255); fill-rule: nonzero; opacity: 1;" transform=" translate(-305.33, -452.31)" d="M 425.15 407.64 C 425.15 407.64 428.10999999999996 430.62 425.89 439.51 C 423.66999999999996 448.40999999999997 418.47999999999996 451.37 394.76 469.9 C 371.03999999999996 488.42999999999995 361.4 495.09999999999997 355.38 488.42999999999995 C 365.67 462.48999999999995 356.21 431.34999999999997 356.21 431.34999999999997 L 295.42999999999995 380.93999999999994 C 295.42999999999995 380.93999999999994 228.71999999999997 406.87999999999994 230.19999999999993 395.7699999999999 C 231.44999999999993 386.4099999999999 264.30999999999995 340.42999999999995 279.1099999999999 322.55999999999995 C 278.7899999999999 333.8999999999999 279.2699999999999 343.34999999999997 279.2699999999999 343.34999999999997 C 304.67999999999995 292.53 327.3399999999999 264.59999999999997 331.4599999999999 260.47999999999996 C 336.7299999999999 255.20999999999995 379.75999999999993 219.04999999999995 388.68999999999994 216.98999999999995 C 397.61999999999995 214.92999999999995 419.5899999999999 195.69999999999996 419.5899999999999 195.69999999999996 L 442.93999999999994 173.03999999999996 L 388.68999999999994 181.96999999999997 L 328.25999999999993 225.22999999999996 C 328.25999999999993 225.22999999999996 299.7099999999999 261.01 287.5899999999999 282.58 L 192.4 387.63 C 192.4 387.63 192.4 400.23 188.69 428.4 C 184.98 456.57 165.71 492.15 165.71 492.15 C 165.71 492.15 154.59 496.59999999999997 182.76000000000002 510.67999999999995 C 210.93 524.76 224.27 561.8299999999999 224.27 561.8299999999999 L 179.79000000000002 538.8499999999999 L 208.70000000000002 622.6099999999999 L 175.34000000000003 680.43 L 200.54000000000002 721.1999999999999 L 239.83 731.5799999999999 L 290.98 713.79 C 290.98 713.79 270.97 717.5 251.69000000000003 713.05 C 232.42000000000002 708.5999999999999 209.44000000000003 693.04 210.18000000000004 682.66 C 210.92000000000004 672.28 239.09000000000003 616.6899999999999 245.76000000000005 587.78 C 252.43000000000004 558.87 252.10000000000005 517.61 252.10000000000005 517.61 C 252.10000000000005 517.61 247.49000000000004 527.16 239.83000000000004 534.41 C 240.24000000000004 500.47999999999996 256.14000000000004 470.65999999999997 256.14000000000004 470.65999999999997 L 280.6 466.95 L 302.84000000000003 489.19 C 302.84000000000003 489.19 301.36 496.6 301.52000000000004 533.75 C 294.27000000000004 576.83 306.54 612.24 306.54 612.24 L 351.76 557.39 L 349.53999999999996 528.48 C 349.53999999999996 528.48 432.55999999999995 475.85 444.41999999999996 465.47 C 456.29 455.09 425.15 407.64 425.15 407.64 z" stroke-linecap="round"/>
</g>
<g transform="matrix(0.2 0 0 0.2 378.9 187.19)" id="logo">
<path style="stroke: none; stroke-width: 1; stroke-dasharray: none; stroke-linecap: butt; stroke-dashoffset: 0; stroke-linejoin: miter; stroke-miterlimit: 4; fill: rgb(255,255,255); fill-rule: nonzero; opacity: 1;" transform=" translate(-474.43, -325.57)" d="M 476.3 389.85 C 447.39 383.18 425.15000000000003 381.70000000000005 417 381.70000000000005 C 408.85 381.70000000000005 396.24 387.63000000000005 395.5 380.96000000000004 C 394.76 374.29 420.7 312.02000000000004 473.33 283.11 C 525.96 254.20000000000002 540.78 262.35 540.78 262.35 L 553.38 334.99 L 531.88 381.69 L 476.3 389.85 z" stroke-linecap="round"/>
</g>
<g transform="matrix(0.2 0 0 0.2 360.53 228.03)" id="logo">
<path style="stroke: none; stroke-width: 1; stroke-dasharray: none; stroke-linecap: butt; stroke-dashoffset: 0; stroke-linejoin: miter; stroke-miterlimit: 4; fill: rgb(53,11,11); fill-rule: nonzero; opacity: 1;" transform=" translate(-382.45, -530.04)" d="M 476.79 536.38 C 473.5 543.63 462.62 574.27 447.47 585.47 C 432.32000000000005 596.6700000000001 413.87 598.98 399.37 597.6600000000001 C 384.87 596.34 355.88 589.7500000000001 345.34000000000003 600.3000000000001 C 354.89000000000004 583.83 363.79 567.0300000000001 363.79 567.0300000000001 C 363.79 567.0300000000001 371.22 573.6600000000001 375.65000000000003 570.0000000000001 C 413.87 538.3700000000001 431.66 510.04000000000013 431.66 510.04000000000013 C 431.66 510.04000000000013 435.28000000000003 529.8100000000002 429.68 542.0000000000001 C 424.08 554.1900000000002 415.18 567.0400000000001 394.1 575.6000000000001 C 394.76000000000005 581.2000000000002 422.1 572.3100000000002 429.02000000000004 566.0500000000002 C 435.94000000000005 559.7900000000002 445.82000000000005 549.9100000000002 452.08000000000004 532.7800000000002 C 458.34000000000003 515.6500000000002 458.67 507.4100000000002 458.34000000000003 503.7900000000002 C 458.01000000000005 500.1700000000002 448.79 482.38000000000017 444.83000000000004 480.7300000000002 C 457.68000000000006 461.2900000000002 460.97 455.0300000000002 459.66 446.1400000000002 C 454.06 434.2800000000002 431 404.6300000000002 417.82000000000005 400.0200000000002 C 426.39000000000004 413.5300000000002 434.62000000000006 428.68000000000023 435.61000000000007 434.9400000000002 C 436.6000000000001 441.2000000000002 432.32000000000005 456.68000000000023 419.1400000000001 470.5200000000002 C 405.9600000000001 484.3600000000002 340.73000000000013 529.1600000000002 334.4700000000001 529.1600000000002 C 328.21000000000004 529.1600000000002 320.30000000000007 520.2600000000002 320.30000000000007 520.2600000000002 C 320.30000000000007 520.2600000000002 323.5900000000001 533.1100000000002 329.20000000000005 538.3800000000002 C 334.80000000000007 543.6500000000002 343.37000000000006 537.3900000000002 343.37000000000006 537.3900000000002 C 343.37000000000006 537.3900000000002 334.4700000000001 568.6900000000002 328.2200000000001 578.2400000000002 C 321.9600000000001 587.7900000000002 312.4100000000001 595.7000000000003 312.4100000000001 595.7000000000003 C 308.4600000000001 594.7100000000003 306.4800000000001 590.4300000000003 304.1700000000001 585.8200000000003 C 301.86000000000007 581.2100000000003 301.5300000000001 533.7700000000003 301.5300000000001 533.7700000000003 C 296.2600000000001 545.3000000000003 293.2900000000001 581.2100000000003 291.3200000000001 593.0700000000003 C 289.35000000000014 604.9300000000003 285.3900000000001 641.1700000000003 287.04000000000013 650.0600000000003 C 288.69000000000017 658.9500000000003 289.35000000000014 660.6000000000003 290.66000000000014 659.9400000000003 C 291.98000000000013 659.2800000000003 302.52000000000015 639.8400000000003 322.29000000000013 631.9400000000003 C 342.0600000000001 624.0300000000003 345.6800000000001 621.4000000000003 377.64000000000016 619.7500000000002 C 409.60000000000014 618.1000000000003 442.21000000000015 621.0700000000003 453.08000000000015 614.4800000000002 C 463.95000000000016 607.8900000000002 469.5500000000002 597.6800000000003 472.19000000000017 586.4800000000002 C 474.82 575.25 481.08 550.54 476.79 536.38 z M 420.13 491.9 C 412.88 516.9399999999999 382.57 545.6 371.7 548.24 L 362.47999999999996 530.78 C 362.48 530.78 403 506.4 420.13 491.9 z" stroke-linecap="round"/>
</g>
<g transform="matrix(0.2 0 0 0.2 383.19 186.48)" id="logo">
<path style="stroke: none; stroke-width: 1; stroke-dasharray: none; stroke-linecap: butt; stroke-dashoffset: 0; stroke-linejoin: miter; stroke-miterlimit: 4; fill: rgb(53,11,11); fill-rule: nonzero; opacity: 1;" transform=" translate(-495.94, -321.98)" d="M 410.33 347.6 C 435.53 302.38 470.37 254.94000000000003 543.01 243.08000000000004 C 555.61 248.27000000000004 565.99 312.02000000000004 561.54 329.81000000000006 C 579.3299999999999 335.00000000000006 581.55 339.45000000000005 581.55 339.45000000000005 C 581.55 339.45000000000005 560.79 389.11 547.4499999999999 395.0400000000001 C 534.1099999999999 400.97000000000014 494.0799999999999 401.7100000000001 485.92999999999995 400.2300000000001 C 477.78 398.75000000000006 455.53999999999996 384.6600000000001 455.53999999999996 384.6600000000001 C 455.53999999999996 384.6600000000001 496.30999999999995 380.9500000000001 507.42999999999995 376.5100000000001 C 518.55 372.0600000000001 528.93 345.3800000000001 528.93 345.3800000000001 C 528.93 345.3800000000001 505.94999999999993 355.7600000000001 493.34999999999997 355.7600000000001 C 520.78 335.7500000000001 531.9 326.8500000000001 523 292.0100000000001 C 497.06 298.6800000000001 454.06 324.6300000000001 444.43 342.4200000000001 C 448.14 317.9600000000001 465.93 300.9100000000001 465.93 300.9100000000001 L 410.33 347.6 z" stroke-linecap="round"/>
</g>
<g transform="matrix(0.2 0 0 0.2 342.55 206.03)" id="logo">
<path style="stroke: none; stroke-width: 1; stroke-dasharray: none; stroke-linecap: butt; stroke-dashoffset: 0; stroke-linejoin: miter; stroke-miterlimit: 4; fill: rgb(53,11,11); fill-rule: nonzero; opacity: 1;" transform=" translate(-292.44, -419.88)" d="M 313.96 320.18 C 312.88 332.17 313.64 370.67 316.78 374.43 C 321.71999999999997 380.36 323.21999999999997 394.44 368.95 419.65 C 380.07 430.77 361.56 481.03 355.37 488.44 C 357.84000000000003 461.75 359.08 451.38 354.75 446.19 C 350.42 441 317.05 415.8 311.49 409.87 C 305.93 403.94 304.69 395.04 304.69 395.04 C 304.69 395.04 306.03 414.31 307.88 422.47 C 309.73 430.62 335.07 453.6 336.93 466.95000000000005 C 338.78000000000003 480.29 317.67 510.68000000000006 317.67 510.68000000000006 C 317.67 510.68000000000006 323.23 484.74000000000007 322 473.62000000000006 C 318.29 463.24000000000007 297.28 443.2300000000001 292.95 435.82000000000005 C 290.47999999999996 452.87000000000006 288.62 461.76000000000005 296.03999999999996 467.69000000000005 C 303.46 473.62000000000006 310.86999999999995 490.6700000000001 300.97999999999996 519.58 C 299.12999999999994 495.12000000000006 299.12999999999994 489.93000000000006 296.03999999999996 486.22 C 292.95 482.51000000000005 282.43999999999994 480.29 280.59 473.62 C 280.51 473.34000000000003 280.48999999999995 472.81 280.52 472.07 C 280.26 472.74 280.03999999999996 473.19 279.85999999999996 473.4 C 275.63999999999993 478.28 265.46999999999997 474.40999999999997 261.29999999999995 475.97999999999996 C 257.12999999999994 477.54999999999995 255.11999999999995 482.14 244.02999999999994 502.78999999999996 C 246.43999999999994 471.67999999999995 259.59999999999997 460.68999999999994 268.4599999999999 459.55999999999995 C 277.31999999999994 458.42999999999995 279.11999999999995 449.5199999999999 283.5199999999999 433.03999999999996 C 276.81999999999994 437.2 250.4699999999999 443.24999999999994 243.16999999999993 450.39 C 237.77999999999994 459.56 232.67999999999992 485.64 232.67999999999992 485.64 C 232.67999999999992 485.64 226.58999999999992 450.03 233.38999999999993 439.24 C 240.18999999999994 428.45 271.5199999999999 422.17 276.31999999999994 415.98 C 281.10999999999996 409.79 288.86999999999995 390.39000000000004 288.86999999999995 390.39000000000004 C 288.86999999999995 390.39000000000004 284.34 397.58000000000004 277.11999999999995 399.75000000000006 C 269.8999999999999 401.9100000000001 235.81999999999994 410.9200000000001 229.97999999999996 413.11000000000007 C 224.13999999999996 415.30000000000007 221.22999999999996 425.19000000000005 213.09999999999997 450.20000000000005 C 210.48999999999995 440.20000000000005 215.64999999999998 391.57000000000005 229.80999999999997 387.90000000000003 C 278.13 385.66 280.59999999999997 377.75000000000006 286.53 372.07000000000005 C 289.81 368.93 310.29 331.4 313.96 320.18 z" stroke-linecap="round"/>
</g>
<g transform="matrix(0.2 0 0 0.2 345.64 271.92)" id="logo">
<path style="stroke: none; stroke-width: 1; stroke-dasharray: none; stroke-linecap: butt; stroke-dashoffset: 0; stroke-linejoin: miter; stroke-miterlimit: 4; fill: rgb(255,255,255); fill-rule: nonzero; opacity: 1;" transform=" translate(-307.88, -749.86)" d="M 343.04 705.05 C 322.28000000000003 714.27 306.8 725.4799999999999 298.24 730.0899999999999 C 289.67 734.6999999999999 274.85 737.67 274.85 737.67 L 247.18 739.65 C 247.18 739.65 242.24 756.78 250.47 770.62 C 258.71 784.46 288.03 794.67 288.03 794.67 L 359.84999999999997 753.8199999999999 L 370.05999999999995 706.3799999999999 L 343.04 705.05 z" stroke-linecap="round"/>
</g>
<g transform="matrix(0.2 0 0 0.2 392.24 267.28)" id="logo">
<path style="stroke: none; stroke-width: 1; stroke-dasharray: none; stroke-linecap: butt; stroke-dashoffset: 0; stroke-linejoin: miter; stroke-miterlimit: 4; fill: rgb(255,255,255); fill-rule: nonzero; opacity: 1;" transform=" translate(-541.25, -726.65)" d="M 414.53 941.6 C 465.91999999999996 920.84 511.39 880.32 523.25 865.5 C 535.11 850.67 543.02 789.4 548.95 783.47 C 604.3000000000001 747.89 623.08 715.27 650.75 676.73 C 678.42 638.1800000000001 691.27 583.83 688.31 582.84 C 677.4399999999999 593.71 652.7299999999999 617.4300000000001 652.7299999999999 617.4300000000001 C 652.7299999999999 617.4300000000001 670.5199999999999 556.1500000000001 657.67 505.75000000000006 C 639.88 545.2800000000001 584.53 642.1400000000001 584.53 642.1400000000001 L 561.8 709.3500000000001 L 498.54999999999995 758.7700000000001 L 479.77 835.8600000000001 L 393.78 926.7900000000002 L 398.71999999999997 947.5500000000002 L 414.53 941.6 z" stroke-linecap="round"/>
</g>
<g transform="matrix(0.2 0 0 0.2 421.31 187.94)" id="logo">
<path style="stroke: none; stroke-width: 1; stroke-dasharray: none; stroke-linecap: butt; stroke-dashoffset: 0; stroke-linejoin: miter; stroke-miterlimit: 4; fill: rgb(255,187,51); fill-rule: nonzero; opacity: 1;" transform=" translate(-686.82, -329.31)" d="M 968 534.4 C 961.08 426.66999999999996 938.35 341.66999999999996 922.54 318.93999999999994 C 906.7299999999999 296.2099999999999 851.38 197.37 720.91 144 C 740.68 165.74 755.5 189.46 755.5 189.46 C 755.5 189.46 642.83 124.23 530.16 124.23 C 460.97999999999996 133.13 405.63 159.81 405.63 159.81 C 405.63 159.81 462.95 143.01 516.3199999999999 145.97 C 569.6899999999999 148.94 700.15 201.32 743.6399999999999 230.97 C 787.1299999999998 260.62 878.0499999999998 369.34000000000003 878.0499999999998 369.34000000000003 L 968 534.4 z" stroke-linecap="round"/>
</g>
<g transform="matrix(0.2 0 0 0.2 352.09 238.86)" id="logo">
<path style="stroke: none; stroke-width: 1; stroke-dasharray: none; stroke-linecap: butt; stroke-dashoffset: 0; stroke-linejoin: miter; stroke-miterlimit: 4; fill: rgb(49,186,255); fill-rule: nonzero; opacity: 1;" transform=" translate(-340.22, -584.31)" d="M 310.26 234.93 C 269.49 255.69 248.73999999999998 262.36 236.88 262.36 C 225.01999999999998 262.36 138.18 258.42 129.28 260.40000000000003 C 120.38 276.21000000000004 128.29 325.63000000000005 134.22 335.51000000000005 C 136.2 361.21000000000004 140.15 356.27000000000004 157.94 377.02000000000004 C 145.09 394.81000000000006 145.65 397.32000000000005 146.64 412.14000000000004 C 147.62999999999997 426.96000000000004 140.95999999999998 458.84000000000003 122.91999999999999 485.52000000000004 C 119.46 500.35 144.76 544.38 144.76 544.38 C 144.76 544.38 144.76 563.16 149.7 572.05 C 154.64 580.9399999999999 166.1 614.9599999999999 164.11999999999998 622.87 C 147.31999999999996 658.45 141.73999999999998 668.81 142.72999999999996 684.62 C 143.71999999999994 700.4300000000001 156.56999999999996 733.05 156.56999999999996 733.05 C 156.56999999999996 733.05 155.87999999999997 749.91 186.21999999999997 780.49 C 195.11999999999998 826.94 306.79999999999995 920.83 360.16999999999996 933.6800000000001 C 401.67999999999995 915.8900000000001 476.78999999999996 867.46 482.71999999999997 849.6700000000001 C 488.65 831.8800000000001 513.36 740.95 513.36 740.95 L 557.84 688.57 L 479.76000000000005 700.4300000000001 L 375.98 784.44 L 292.96000000000004 851.6500000000001 C 292.96000000000004 851.6500000000001 232.67000000000004 846.71 209.94000000000005 772.5800000000002 C 180.29000000000005 729.0900000000001 175.35000000000005 680.4200000000002 175.35000000000005 680.4200000000002 L 208.71000000000004 622.6000000000001 L 165.72000000000003 492.1400000000001 L 188.70000000000002 428.3900000000001 L 192.41000000000003 387.6200000000001 L 192.16000000000003 368.35000000000014 L 171.40000000000003 335.73000000000013 L 159.54000000000002 287.3000000000001 L 259.36 298.17000000000013 L 310.26 234.93 z" stroke-linecap="round"/>
</g>
<g transform="matrix(0.2 0 0 0.2 396.3 232.81)" id="logo">
<path style="stroke: none; stroke-width: 1; stroke-dasharray: none; stroke-linecap: butt; stroke-dashoffset: 0; stroke-linejoin: miter; stroke-miterlimit: 4; fill: rgb(53,11,11); fill-rule: nonzero; opacity: 1;" transform=" translate(-561.63, -554.01)" d="M 825.45 259.59 C 718.71 178.04999999999995 533.3700000000001 124.48999999999998 451.09000000000003 145.23999999999998 C 368.80999999999995 165.98999999999998 359.17 166.73999999999998 343.61 180.82 C 332.7 190.7 309.75 226.44 288.84000000000003 254.85 C 284.92 259.28 279.69000000000005 265.21 273.61 272.12 C 254.92000000000002 285.15 254.63000000000002 286.82 239.84 286.82 C 222.79 286.82 151.63 279.40999999999997 151.63 279.40999999999997 C 151.63 279.40999999999997 146.44 303.13 162.75 329.06999999999994 C 159.04 345.37999999999994 159.04 344.63999999999993 169.42 357.97999999999996 C 174.64 364.68999999999994 180.79 370.45 185.61999999999998 374.53 C 180.64 380.75 177.29999999999998 385.21999999999997 176.33999999999997 387.13 C 169.92 399.98 181.96999999999997 419.56 175.34999999999997 444.7 C 167.93999999999997 472.87 153.35999999999996 486.21 152.36999999999998 495.11 C 151.38 504.01000000000005 172.87999999999997 541.3100000000001 172.87999999999997 541.3100000000001 C 172.87999999999997 541.3100000000001 171.39999999999998 552.6800000000001 173.36999999999998 560.09 C 175.34999999999997 567.5 196.09999999999997 612.97 195.10999999999999 625.32 C 194.11999999999998 637.6700000000001 176.32999999999998 659.9100000000001 169.41 672.2700000000001 C 162.49 684.6200000000001 171.39 700.44 176.82 720.7 C 177.15 721.1500000000001 177.60999999999999 721.62 178.18 722.09 C 177.19 730.46 177.54000000000002 734.82 181.76000000000002 740.96 C 187.20000000000002 748.87 199.55 768.63 199.55 768.63 C 199.55 768.63 202.02 784.4399999999999 214.87 801.74 C 227.72 819.04 247.49 854.62 303.33 873.89 C 302.84 867.96 302.84 857.58 302.84 857.58 C 302.84 857.58 316.67999999999995 882.2900000000001 348.79999999999995 890.69 C 342.37999999999994 878.83 340.4 851.1600000000001 340.4 851.1600000000001 C 340.4 851.1600000000001 350.78 870.4300000000001 391.29999999999995 879.33 C 388.3299999999999 859.07 393.77 810.1500000000001 401.17999999999995 798.2900000000001 C 408.5899999999999 786.4300000000001 437.24999999999994 759.2500000000001 447.13999999999993 748.8700000000001 C 457.0199999999999 738.4900000000001 514.8399999999999 704.3900000000001 538.56 703.4100000000001 L 482.9699999999999 749.3700000000001 C 482.9699999999999 749.3700000000001 482.2299999999999 806.4500000000002 471.1099999999999 828.6800000000001 C 466.0499999999999 838.8000000000001 422.9299999999999 892.4300000000001 408.0999999999999 896.8800000000001 C 393.2699999999999 901.3300000000002 365.1099999999999 890.2100000000002 365.1099999999999 890.2100000000002 C 365.1099999999999 890.2100000000002 369.5599999999999 910.9700000000001 376.9699999999999 915.4100000000002 C 354.7299999999999 913.1900000000002 324.3399999999999 898.3600000000002 319.88999999999993 893.9100000000002 C 331.00999999999993 909.4800000000002 362.13999999999993 945.0300000000002 412.54999999999995 960.6000000000001 C 507.42999999999995 976.9100000000001 627.0699999999999 964.3600000000001 721.9 910.9600000000002 C 827.65 851.4100000000002 965.74 717.0700000000002 972.41 528.7900000000002 C 926.24 370.18 932.19 341.13 825.45 259.59 z M 177.57 334.26 C 187.95 331.28999999999996 192.4 326.84999999999997 192.4 326.84999999999997 C 192.4 326.84999999999997 187.95000000000002 329.80999999999995 176.83 305.34999999999997 C 190.88000000000002 311.43999999999994 216.46 315.74999999999994 233.4 318.09999999999997 C 222.94 330.15999999999997 212.6 342.17999999999995 203.64000000000001 352.78 C 197.04 350.23 184.46 344.33 177.57 334.26 z M 187.87 549.88 C 187.87 549.88 208.95 568 215.38 564.05 C 214.89 589.25 208.46 608.53 208.46 608.53 C 208.46 608.53 206.98000000000002 595.68 200.06 580.36 C 193.14 565.04 187.87 549.88 187.87 549.88 z M 185.23 521.06 C 185.23 521.06 203.01999999999998 528.9699999999999 212.41 553.18 C 200.55 546.26 194.62 546.76 191.16 541.3199999999999 C 187.7 535.88 185.23 521.06 185.23 521.06 z M 215.05 765.75 C 191.66000000000003 736.37 199.65 734.94 199.65 734.94 C 205.31 741.09 220.76 746.9200000000001 223.61 743.5 C 233.31 752.91 233.88000000000002 776.3 233.88000000000002 776.3 C 233.88000000000002 776.3 222.6 775.24 215.05 765.75 z M 313.06 813.11 C 308.78000000000003 814.76 309.11 824.64 309.11 828.59 C 301.53000000000003 827.9300000000001 290 816.4 290 816.4 C 290 816.4 290.66 829.91 298.24 837.48 C 281.44 836.16 262.66 813.76 262.66 813.76 C 262.66 813.76 265.95000000000005 827.6 273.20000000000005 835.83 C 256.07000000000005 832.21 235.97000000000006 806.84 221.15000000000003 788.3900000000001 C 247.51000000000005 806.1800000000001 246.10000000000002 798.3600000000001 252.12000000000003 793.3300000000002 C 258.38000000000005 797.6100000000001 273.20000000000005 803.8700000000001 288.36 803.8700000000001 C 303.51 803.8700000000001 342.72 785.0900000000001 351.94 776.5300000000001 C 343.7 794.33 317.34 811.46 313.06 813.11 z M 833.59 691.55 C 811.35 699.6999999999999 754.28 717.49 732.78 720.4599999999999 C 718.6999999999999 738.2499999999999 683.12 796.0699999999999 614.18 823.4899999999999 C 614.92 834.6099999999999 635.68 859.0699999999999 630.4899999999999 866.4799999999999 C 625.2999999999998 873.8899999999999 501.5099999999999 937.6399999999999 401.4399999999999 933.93 C 463.70999999999987 890.1999999999999 485.1999999999999 870.92 493.3599999999999 851.65 C 501.5099999999999 832.38 518.56 789.38 520.05 756.77 C 569.7099999999999 722.67 615.67 690.06 628.27 674.49 C 640.87 658.92 651.99 628.53 651.99 628.53 C 651.99 628.53 619.37 669.3 591.21 681.9 C 611.25 647.64 626.21 614.5 630.7 585.93 C 639.74 564.9399999999999 654.5200000000001 540.24 660.1500000000001 526.9699999999999 C 667.07 510.6599999999999 665.0900000000001 506.7099999999999 659.6600000000001 489.9099999999999 C 654.22 473.1099999999999 630.5000000000001 405.8999999999999 604.3100000000001 366.3699999999999 C 615.6800000000001 412.8199999999999 621.61 465.1999999999999 617.1600000000001 484.4799999999999 C 608.2600000000001 470.1499999999999 572.19 432.5899999999999 555.3900000000001 426.6599999999999 C 573.6700000000001 461.7499999999999 579.6000000000001 478.5499999999999 579.6000000000001 483.4899999999999 C 579.6000000000001 488.4299999999999 568.7300000000001 533.8999999999999 568.7300000000001 533.8999999999999 C 568.7300000000001 533.8999999999999 546.4900000000001 482.5099999999999 539.0800000000002 471.6299999999999 C 531.6700000000002 460.7599999999999 503.50000000000017 435.0599999999999 479.29000000000013 427.64999999999986 C 503.0100000000001 454.33999999999986 517.3400000000001 471.1399999999999 521.7900000000002 484.47999999999985 C 526.2400000000002 497.8199999999998 548.9700000000001 581.3399999999998 536.1200000000002 601.0999999999999 C 523.2700000000002 620.8699999999999 485.71000000000026 630.2599999999999 465.9500000000002 635.6899999999999 C 446.18000000000023 641.13 414.56000000000023 648.54 414.56000000000023 648.54 C 414.56000000000023 648.54 412.0900000000002 673.74 401.7100000000002 675.7199999999999 C 391.3300000000002 677.6999999999999 392.3200000000002 664.8499999999999 378.4800000000002 659.91 C 364.6400000000002 654.9699999999999 334.50000000000017 656.9399999999999 334.50000000000017 656.9399999999999 C 334.50000000000017 656.9399999999999 349.82000000000016 665.8399999999999 355.75000000000017 673.7399999999999 C 361.6800000000002 681.6399999999999 360.20000000000016 688.5699999999999 356.2400000000002 691.0399999999998 C 352.2900000000002 693.5099999999999 327.08000000000015 702.8999999999999 317.69000000000017 718.7099999999998 C 335.4800000000002 710.3099999999998 352.7800000000002 706.3599999999998 354.75000000000017 708.8299999999998 C 356.7300000000002 711.2999999999998 359.20000000000016 715.2499999999998 358.70000000000016 724.6399999999998 C 358.21000000000015 734.0299999999997 355.73000000000013 751.8199999999997 324.1100000000001 769.6099999999998 C 292.4900000000001 787.3999999999999 281.6100000000001 785.4199999999997 276.1800000000001 784.4399999999998 C 270.7500000000001 783.4599999999999 253.9400000000001 769.6099999999998 250.48000000000013 756.2699999999999 C 249.23000000000013 751.4399999999998 252.05000000000013 747.0699999999998 256.16000000000014 743.4499999999998 C 272.29000000000013 744.1399999999999 290.67000000000013 735.7899999999998 301.8700000000001 721.6699999999998 C 313.2400000000001 707.3399999999998 301.3800000000001 664.3499999999998 301.3800000000001 664.3499999999998 C 301.3800000000001 664.3499999999998 293.6400000000001 696.4699999999998 285.73000000000013 704.3799999999998 C 277.8200000000001 712.2899999999997 254.38000000000014 724.4399999999997 232.03000000000014 719.8599999999998 C 203.04000000000013 713.9299999999998 188.87000000000015 697.7899999999997 188.54000000000013 683.6199999999998 C 189.03000000000014 678.6799999999997 199.08000000000013 664.8399999999998 215.39000000000013 629.7599999999998 C 231.70000000000013 594.6699999999997 240.72000000000014 557.3599999999998 228.61000000000013 521.2899999999997 C 228.61000000000013 521.2899999999997 221.86000000000013 541.9799999999998 217.37000000000012 537.0999999999997 C 211.8200000000001 531.0799999999997 208.43000000000012 518.7799999999996 192.18000000000012 509.5299999999997 C 184.02000000000012 503.8399999999997 174.6900000000001 497.4399999999997 175.36000000000013 493.36999999999966 C 203.53000000000014 452.3499999999997 196.12000000000012 411.3399999999997 197.60000000000014 403.92999999999967 C 199.08000000000013 396.51999999999964 230.71000000000015 365.87999999999965 249.98000000000013 341.1699999999997 C 269.2500000000001 316.4599999999997 316.20000000000016 255.67999999999967 316.20000000000016 255.67999999999967 C 316.20000000000016 255.67999999999967 363.64000000000016 205.26999999999967 378.47000000000014 197.11999999999966 C 393.3000000000001 188.96999999999966 429.6200000000001 180.80999999999966 429.6200000000001 180.80999999999966 C 429.6200000000001 180.80999999999966 371.0600000000001 224.53999999999965 359.2000000000001 246.03999999999968 C 347.3400000000001 267.5399999999997 342.8900000000001 276.42999999999967 342.8900000000001 276.42999999999967 C 342.8900000000001 276.42999999999967 374.7600000000001 245.29999999999967 402.9300000000001 228.98999999999967 C 431.10000000000014 212.67999999999967 482.9900000000001 186.73999999999967 506.71000000000015 183.76999999999967 C 530.4300000000002 180.79999999999967 595.6600000000002 194.14999999999966 609.0000000000001 204.52999999999966 C 629.0100000000001 260.11999999999966 637.9100000000001 266.04999999999967 642.3600000000001 285.32999999999964 C 646.8100000000002 304.5999999999996 657.1900000000002 377.98999999999967 652.0000000000001 396.51999999999964 C 672.0100000000001 370.57999999999964 686.8400000000001 331.2899999999996 683.1300000000001 312.75999999999965 C 679.4200000000001 294.2299999999997 666.0800000000002 227.51999999999964 654.9600000000002 208.97999999999965 C 690.5400000000002 234.17999999999964 697.2100000000002 231.21999999999966 715.7400000000001 274.94999999999965 C 734.2700000000001 318.67999999999967 772.0800000000002 388.3599999999997 774.3000000000002 423.19999999999965 C 776.5200000000002 458.0399999999996 772.0800000000002 534.3899999999996 748.3600000000001 592.2099999999996 C 788.3900000000001 548.4799999999996 835.8300000000002 457.2999999999996 835.8300000000002 438.7699999999996 C 835.8300000000002 420.23999999999955 825.4500000000002 355.7499999999996 808.4000000000002 317.9499999999996 C 851.3900000000002 386.1499999999996 866.2200000000003 440.2599999999996 866.2200000000003 456.5699999999996 C 866.2200000000003 472.8799999999996 849.1700000000003 540.3299999999996 842.5000000000002 552.1899999999996 C 844.7200000000003 573.6899999999996 852.1400000000002 588.5099999999996 840.2800000000002 601.8499999999996 C 828.4200000000002 615.1899999999996 720.2000000000002 675.2299999999996 686.8400000000001 685.6099999999996 C 713.5300000000002 695.2499999999995 868.4500000000002 660.4099999999995 868.4500000000002 660.4099999999995 C 868.4500000000002 660.4099999999995 855.82 683.39 833.59 691.55 z" stroke-linecap="round"/>
</g>
<g transform="matrix(0.2 0 0 0.2 426.7 208.67)" id="logo">
<path style="stroke: none; stroke-width: 1; stroke-dasharray: none; stroke-linecap: butt; stroke-dashoffset: 0; stroke-linejoin: miter; stroke-miterlimit: 4; fill: rgb(242,196,71); fill-rule: nonzero; opacity: 1;" transform=" translate(-713.86, -433.11)" d="M 699.71 305.6 C 726.77 360.77000000000004 737.69 388.44000000000005 740.3000000000001 407.70000000000005 C 742.9000000000001 426.96000000000004 723.6500000000001 517.4200000000001 707.5200000000001 560.61 C 708.5600000000001 525.22 687.19 431.96000000000004 687.19 431.96000000000004 C 699.09 444.32000000000005 707 463.29 707 463.29 C 707 463.29 716.01 432.89000000000004 718.32 406.32000000000005 C 719.24 395.79 699.71 305.6 699.71 305.6 z" stroke-linecap="round"/>
</g>
<g transform="matrix(0.83 0 0 0.83 384 361.37)" style="filter: url(#SVGID_1);">
<filter id="SVGID_1" y="-NaN%" height="NaN%" x="-NaN%" width="NaN%">
	<feGaussianBlur in="SourceAlpha" stdDeviation="0"/>
	<feOffset dx="NaN" dy="NaN" result="oBlur"/>
	<feFlood flood-color="rgb(0,0,0)" flood-opacity="1"/>
	<feComposite in2="oBlur" operator="in"/>
	<feMerge>
		<feMergeNode/>
		<feMergeNode in="SourceGraphic"/>
	</feMerge>
</filter>
		<text xml:space="preserve" font-family="Agbalumo" font-size="40" font-style="normal" font-weight="normal" style="stroke: none; stroke-width: 1; stroke-dasharray: none; stroke-linecap: butt; stroke-dashoffset: 0; stroke-linejoin: miter; stroke-miterlimit: 4; fill: rgb(53,11,11); fill-rule: nonzero; opacity: 1; white-space: pre;"><tspan x="-224.82" y="12.57">Majidul Islam [Ab Majid]</tspan></text>
</g>
<g transform="matrix(0.83 0 0 0.83 384 402.76)" style="filter: url(#SVGID_2);">
<filter id="SVGID_2" y="-NaN%" height="NaN%" x="-NaN%" width="NaN%">
	<feGaussianBlur in="SourceAlpha" stdDeviation="0"/>
	<feOffset dx="NaN" dy="NaN" result="oBlur"/>
	<feFlood flood-color="rgb(0,0,0)" flood-opacity="1"/>
	<feComposite in2="oBlur" operator="in"/>
	<feMerge>
		<feMergeNode/>
		<feMergeNode in="SourceGraphic"/>
	</feMerge>
</filter>
		<text xml:space="preserve" font-family="Agbalumo" font-size="20" font-style="normal" font-weight="normal" style="stroke: none; stroke-width: 1; stroke-dasharray: none; stroke-linecap: butt; stroke-dashoffset: 0; stroke-linejoin: miter; stroke-miterlimit: 4; fill: rgb(53,11,11); fill-rule: nonzero; opacity: 1; white-space: pre;"><tspan x="-110.49" y="6.28">This is smart technology</tspan></text>
</g>
</svg>